<svg width="500" height="400" viewBox="0 0 500 400" fill="none" xmlns="http://www.w3.org/2000/svg">
<g clip-path="url(#clip0_946_770)">
<path d="M495 0H5C2.23858 0 0 2.23858 0 5V395C0 397.761 2.23858 400 5 400H495C497.761 400 500 397.761 500 395V5C500 2.23858 497.761 0 495 0Z" fill="#F1F2F7"/>
<path d="M465 20H35C26.7157 20 20 26.7157 20 35V45C20 53.2843 26.7157 60 35 60H465C473.284 60 480 53.2843 480 45V35C480 26.7157 473.284 20 465 20Z" fill="white"/>
<path d="M135 30H40C34.4772 30 30 34.4772 30 40C30 45.5228 34.4772 50 40 50H135C140.523 50 145 45.5228 145 40C145 34.4772 140.523 30 135 30Z" fill="#F1F2F7"/>
<path d="M362 40C362 34.4772 357.523 30 352 30C346.477 30 342 34.4772 342 40C342 45.5228 346.477 50 352 50C357.523 50 362 45.5228 362 40Z" fill="#F1F2F7"/>
<path d="M392 40C392 34.4772 387.523 30 382 30C376.477 30 372 34.4772 372 40C372 45.5228 376.477 50 382 50C387.523 50 392 45.5228 392 40Z" fill="#F1F2F7"/>
<g opacity="0.8">
<path d="M239 70H35C26.7157 70 20 76.7157 20 85V145C20 153.284 26.7157 160 35 160H239C247.284 160 254 153.284 254 145V85C254 76.7157 247.284 70 239 70Z" fill="white"/>
<path d="M352 70H274C265.716 70 259 76.7157 259 85V145C259 153.284 265.716 160 274 160H352C360.284 160 367 153.284 367 145V85C367 76.7157 360.284 70 352 70Z" fill="white"/>
<path d="M465 70H387C378.716 70 372 76.7157 372 85V145C372 153.284 378.716 160 387 160H465C473.284 160 480 153.284 480 145V85C480 76.7157 473.284 70 465 70Z" fill="white"/>
<path d="M465 165H35C26.7157 165 20 171.716 20 180V203C20 211.284 26.7157 218 35 218H465C473.284 218 480 211.284 480 203V180C480 171.716 473.284 165 465 165Z" fill="white"/>
<path d="M232.5 223H35C26.7157 223 20 229.716 20 238V365C20 373.284 26.7157 380 35 380H232.5C240.784 380 247.5 373.284 247.5 365V238C247.5 229.716 240.784 223 232.5 223Z" fill="white"/>
<path d="M465 223H267.5C259.216 223 252.5 229.716 252.5 238V365C252.5 373.284 259.216 380 267.5 380H465C473.284 380 480 373.284 480 365V238C480 229.716 473.284 223 465 223Z" fill="white"/>
</g>
</g>
<defs>
<clipPath id="clip0_946_770">
<rect width="500" height="400" fill="white"/>
</clipPath>
</defs>
</svg>
