<svg width="500" height="400" viewBox="0 0 500 400" fill="none" xmlns="http://www.w3.org/2000/svg">
<g clip-path="url(#clip0_946_744)">
<path d="M495 0H5C2.23858 0 0 2.23858 0 5V395C0 397.761 2.23858 400 5 400H495C497.761 400 500 397.761 500 395V5C500 2.23858 497.761 0 495 0Z" fill="#F1F2F7"/>
<mask id="mask0_946_744" style="mask-type:luminance" maskUnits="userSpaceOnUse" x="20" y="20" width="89" height="360">
<path d="M94 20H35C26.7157 20 20 26.7157 20 35V365C20 373.284 26.7157 380 35 380H94C102.284 380 109 373.284 109 365V35C109 26.7157 102.284 20 94 20Z" fill="white"/>
</mask>
<g mask="url(#mask0_946_744)">
<path d="M94 20H35C26.7157 20 20 26.7157 20 35V365C20 373.284 26.7157 380 35 380H94C102.284 380 109 373.284 109 365V35C109 26.7157 102.284 20 94 20Z" fill="white"/>
<path d="M84.5 85H44.5C37.5964 85 32 90.5964 32 97.5C32 104.404 37.5964 110 44.5 110H84.5C91.4036 110 97 104.404 97 97.5C97 90.5964 91.4036 85 84.5 85Z" fill="#F1F2F7"/>
<path d="M84.5 121H44.5C37.5964 121 32 126.596 32 133.5C32 140.404 37.5964 146 44.5 146H84.5C91.4036 146 97 140.404 97 133.5C97 126.596 91.4036 121 84.5 121Z" fill="#F1F2F7"/>
<path d="M84.5 157H44.5C37.5964 157 32 162.596 32 169.5C32 176.404 37.5964 182 44.5 182H84.5C91.4036 182 97 176.404 97 169.5C97 162.596 91.4036 157 84.5 157Z" fill="#F1F2F7"/>
<path d="M84.5 193H44.5C37.5964 193 32 198.596 32 205.5C32 212.404 37.5964 218 44.5 218H84.5C91.4036 218 97 212.404 97 205.5C97 198.596 91.4036 193 84.5 193Z" fill="#F1F2F7"/>
<circle cx="35.5" cy="51.0049" r="3.50005" fill="#EDEEF3"/>
<rect x="47" y="48.5049" width="35" height="5" fill="#EDEEF3"/>
<circle cx="93.5001" cy="51.0049" r="3.50005" fill="#EDEEF3"/>
</g>
<path d="M465 20H134C125.716 20 119 26.7157 119 35V45C119 53.2843 125.716 60 134 60H465C473.284 60 480 53.2843 480 45V35C480 26.7157 473.284 20 465 20Z" fill="white"/>
<path d="M262 30H167C161.477 30 157 34.4772 157 40C157 45.5228 161.477 50 167 50H262C267.523 50 272 45.5228 272 40C272 34.4772 267.523 30 262 30Z" fill="#F1F2F7"/>
<path d="M412 40C412 34.4772 407.523 30 402 30C396.477 30 392 34.4772 392 40C392 45.5228 396.477 50 402 50C407.523 50 412 45.5228 412 40Z" fill="#F1F2F7"/>
<path d="M442 40C442 34.4772 437.523 30 432 30C426.477 30 422 34.4772 422 40C422 45.5228 426.477 50 432 50C437.523 50 442 45.5228 442 40Z" fill="#F1F2F7"/>
<g opacity="0.8">
<path d="M239 70H134C125.716 70 119 76.7157 119 85V145C119 153.284 125.716 160 134 160H239C247.284 160 254 153.284 254 145V85C254 76.7157 247.284 70 239 70Z" fill="white"/>
<path d="M352 70H274C265.716 70 259 76.7157 259 85V145C259 153.284 265.716 160 274 160H352C360.284 160 367 153.284 367 145V85C367 76.7157 360.284 70 352 70Z" fill="white"/>
<path d="M465 70H387C378.716 70 372 76.7157 372 85V145C372 153.284 378.716 160 387 160H465C473.284 160 480 153.284 480 145V85C480 76.7157 473.284 70 465 70Z" fill="white"/>
<path d="M465 165H134C125.716 165 119 171.716 119 180V203C119 211.284 125.716 218 134 218H465C473.284 218 480 211.284 480 203V180C480 171.716 473.284 165 465 165Z" fill="white"/>
<path d="M282 223H134C125.716 223 119 229.716 119 238V365C119 373.284 125.716 380 134 380H282C290.284 380 297 373.284 297 365V238C297 229.716 290.284 223 282 223Z" fill="white"/>
<path d="M465 223H317C308.716 223 302 229.716 302 238V365C302 373.284 308.716 380 317 380H465C473.284 380 480 373.284 480 365V238C480 229.716 473.284 223 465 223Z" fill="white"/>
</g>
</g>
<defs>
<clipPath id="clip0_946_744">
<rect width="500" height="400" fill="white"/>
</clipPath>
</defs>
</svg>
